# xmcd
# Track frame offsets:
# 150
# 14399
# 28005
# 43545
# 57188
# 71848
# 87432
# 101509
# 115672
# 128952
# 144456
# 159659
# 174183
# 189149
# 202041
# 215266
# 230188
# 259277
# 272632
# 287495
#
# Disc length: 4040 seconds
# Revision: 0
# Processed by: cddbd v1.4PL0 Copyright (c) Steve Scherf et al.
# Submitted via: VisiTrax 2.9.5.181 - For more info visit www.synapsa.com
#
DISCID=210fc614
DTITLE=Bessie Smith - La regina del blues
DYEAR=1996
DGENRE=
TTITLE0=St. Louis blues
TTITLE1=Reckless blues
TTITLE2=You've been a good ole wagon
TTITLE3=Sobbin' hearted blues
TTITLE4=Cold in hand blues
TTITLE5=Down hearted blues
TTITLE6=Weeping willow blues
TTITLE7=Cake walking babies
TTITLE8=The yellow dog blues
TTITLE9=Careless love blues
TTITLE10=I ain't gonna play no second fiddle
TTITLE11=Gin house blues
TTITLE12=Backwater blues
TTITLE13=Preachin' the blues
TTITLE14=After you're gone
TTITLE15=Send me to the 'lectric chair
TTITLE16=Empty bad blues
TTITLE17=Nobody knows you when are down and out
TTITLE18=Shipwreck Blues
TTITLE19=Gimmie a pigfoot
EXTD=
EXTT0=
EXTT1=
EXTT2=
EXTT3=
EXTT4=
EXTT5=
EXTT6=
EXTT7=
EXTT8=
EXTT9=
EXTT10=
EXTT11=
EXTT12=
EXTT13=
EXTT14=
EXTT15=
EXTT16=
EXTT17=
EXTT18=
EXTT19=
PLAYORDER=
